<svg width="40" height="40" viewBox="0 0 42 40" fill="none" xmlns="http://www.w3.org/2000/svg">
<path d="M31.7793 22.1723V18.3829C31.7807 15.8217 30.9203 13.335 29.3373 11.3247C27.7543 9.31451 25.5412 7.89831 23.0559 7.30516C23.0748 7.23167 23.0895 7.15717 23.1 7.08201V2.10523C23.1 1.54689 22.8787 1.01142 22.4849 0.616609C22.0911 0.221801 21.557 0 21 0C20.443 0 19.9089 0.221801 19.5151 0.616609C19.1212 1.01142 18.9 1.54689 18.9 2.10523V7.08201C18.9104 7.15717 18.9252 7.23168 18.9441 7.30516C16.4588 7.89831 14.2457 9.31451 12.6627 11.3247C11.0797 13.335 10.2193 15.8217 10.2207 18.3829V22.1723C10.2207 27.1954 6.3 28.4501 6.3 30.9617C6.3 32.2101 6.3 33.4732 7.4298 33.4732H34.5702C35.7 33.4732 35.7 32.2101 35.7 30.9617C35.7 28.4501 31.7793 27.1954 31.7793 22.1723ZM8.4 8.21041C7.84309 8.21029 7.30903 7.98841 6.9153 7.59358L4.8153 5.48834C4.43277 5.09129 4.2211 4.5595 4.22588 4.00752C4.23067 3.45553 4.45152 2.92752 4.84088 2.53719C5.23024 2.14686 5.75694 1.92546 6.30756 1.92066C6.85817 1.91586 7.38864 2.12806 7.7847 2.51154L9.8847 4.61678C10.1783 4.9112 10.3782 5.28627 10.4592 5.69459C10.5402 6.10291 10.4986 6.52613 10.3397 6.91075C10.1808 7.29538 9.91172 7.62414 9.56646 7.85547C9.2212 8.0868 8.81528 8.21032 8.4 8.21041ZM4.2 16.6313H2.1C1.54305 16.6313 1.0089 16.4095 0.615076 16.0147C0.221249 15.6199 0 15.0845 0 14.5261C0 13.9678 0.221249 13.4323 0.615076 13.0375C1.0089 12.6427 1.54305 12.4209 2.1 12.4209H4.2C4.75695 12.4209 5.2911 12.6427 5.68492 13.0375C6.07875 13.4323 6.3 13.9678 6.3 14.5261C6.3 15.0845 6.07875 15.6199 5.68492 16.0147C5.2911 16.4095 4.75695 16.6313 4.2 16.6313ZM33.6 8.21041C33.1847 8.21032 32.7788 8.0868 32.4335 7.85547C32.0883 7.62414 31.8192 7.29538 31.6603 6.91075C31.5014 6.52613 31.4598 6.10291 31.5408 5.69459C31.6218 5.28627 31.8217 4.9112 32.1153 4.61678L34.2153 2.51154C34.409 2.31047 34.6407 2.15009 34.8969 2.03976C35.1532 1.92942 35.4287 1.87135 35.7076 1.86892C35.9864 1.86649 36.2629 1.91976 36.521 2.02561C36.7791 2.13146 37.0136 2.28778 37.2107 2.48545C37.4079 2.68312 37.5638 2.91817 37.6694 3.17689C37.775 3.43562 37.8281 3.71284 37.8257 3.99237C37.8233 4.2719 37.7654 4.54815 37.6553 4.80499C37.5452 5.06184 37.3853 5.29414 37.1847 5.48834L35.0847 7.59358C34.691 7.98841 34.1569 8.21029 33.6 8.21041ZM39.9 16.6313H37.8C37.243 16.6313 36.7089 16.4095 36.3151 16.0147C35.9212 15.6199 35.7 15.0845 35.7 14.5261C35.7 13.9678 35.9212 13.4323 36.3151 13.0375C36.7089 12.6427 37.243 12.4209 37.8 12.4209H39.9C40.457 12.4209 40.9911 12.6427 41.3849 13.0375C41.7788 13.4323 42 13.9678 42 14.5261C42 15.0845 41.7788 15.6199 41.3849 16.0147C40.9911 16.4095 40.457 16.6313 39.9 16.6313ZM14.3283 35.5784C14.8854 36.8901 15.8149 38.0085 17.0011 38.7947C18.1873 39.5808 19.578 40 21 40C22.422 40 23.8127 39.5808 24.9989 38.7947C26.1851 38.0085 27.1146 36.8901 27.6717 35.5784H14.3283Z" fill="black"/>
</svg>
