<svg width="32" height="40" viewBox="0 0 32 40" fill="none" xmlns="http://www.w3.org/2000/svg">
<path d="M28 14H25V9C25 6.61305 24.0518 4.32387 22.364 2.63604C20.6761 0.948212 18.3869 0 16 0C13.6131 0 11.3239 0.948212 9.63604 2.63604C7.94821 4.32387 7 6.61305 7 9V14H4C2.93913 14 1.92172 14.4214 1.17157 15.1716C0.421427 15.9217 0 16.9391 0 18L0 36C0 37.0609 0.421427 38.0783 1.17157 38.8284C1.92172 39.5786 2.93913 40 4 40H28C29.0609 40 30.0783 39.5786 30.8284 38.8284C31.5786 38.0783 32 37.0609 32 36V18C32 16.9391 31.5786 15.9217 30.8284 15.1716C30.0783 14.4214 29.0609 14 28 14ZM18 30C18 30.5304 17.7893 31.0391 17.4142 31.4142C17.0391 31.7893 16.5304 32 16 32C15.4696 32 14.9609 31.7893 14.5858 31.4142C14.2107 31.0391 14 30.5304 14 30V24C14 23.4696 14.2107 22.9609 14.5858 22.5858C14.9609 22.2107 15.4696 22 16 22C16.5304 22 17.0391 22.2107 17.4142 22.5858C17.7893 22.9609 18 23.4696 18 24V30ZM21 14H11V9C11 7.67392 11.5268 6.40215 12.4645 5.46447C13.4021 4.52678 14.6739 4 16 4C17.3261 4 18.5979 4.52678 19.5355 5.46447C20.4732 6.40215 21 7.67392 21 9V14Z" fill="black"/>
</svg>