<?xml version="1.0" encoding="iso-8859-1"?>
<!-- Uploaded to: SVG Repo, www.svgrepo.com, Generator: SVG Repo Mixer Tools -->
<svg fill="#000000" height="40px" width="40px" version="1.1" id="Layer_1" xmlns="http://www.w3.org/2000/svg" xmlns:xlink="http://www.w3.org/1999/xlink" 
	 viewBox="0 0 491.52 491.52" xml:space="preserve">
<g>
	<g>
		<g>
			<path d="M409.6,0H81.92C70.595,0,61.44,9.155,61.44,20.48v307.2h368.64V20.48C430.08,9.155,420.925,0,409.6,0z M184.32,266.24
				h-20.48c-11.325,0-20.48-9.155-20.48-20.48c0-11.325,9.155-20.48,20.48-20.48h20.48c11.325,0,20.48,9.155,20.48,20.48
				C204.8,257.085,195.645,266.24,184.32,266.24z M307.2,307.2c-33.874,0-61.44-27.566-61.44-61.44
				c0-33.874,27.566-61.44,61.44-61.44s61.44,27.566,61.44,61.44C368.64,279.634,341.074,307.2,307.2,307.2z"/>
			<path d="M307.2,225.28c-11.305,0-20.48,9.175-20.48,20.48c0,11.305,9.175,20.48,20.48,20.48s20.48-9.175,20.48-20.48
				C327.68,234.455,318.505,225.28,307.2,225.28z"/>
			<path d="M61.44,471.04c0,11.325,9.155,20.48,20.48,20.48H409.6c11.325,0,20.48-9.155,20.48-20.48v-102.4H61.44V471.04z
				 M225.28,389.12h40.96c11.326,0,20.48,9.155,20.48,20.48s-9.155,20.48-20.48,20.48h-40.96c-11.325,0-20.48-9.155-20.48-20.48
				S213.955,389.12,225.28,389.12z"/>
		</g>
	</g>
</g>
</svg>