<?xml version="1.0" encoding="iso-8859-1"?>
<!-- Uploaded to: SVG Repo, www.svgrepo.com, Generator: SVG Repo Mixer Tools -->
<!DOCTYPE svg PUBLIC "-//W3C//DTD SVG 1.1//EN" "http://www.w3.org/Graphics/SVG/1.1/DTD/svg11.dtd">
<svg fill="#000000" height="800px" width="800px" version="1.1" id="Capa_1" xmlns="http://www.w3.org/2000/svg" xmlns:xlink="http://www.w3.org/1999/xlink" 
	 viewBox="0 0 301.902 301.902" xml:space="preserve">
<g>
	<path d="M150.951,17.341L0,284.56h301.902L150.951,17.341z M182.231,216.859v36.753H166.19v-28.351
		c-2.338,0.73-4.749,1.293-7.218,1.682v26.668h-16.041v-26.668c-2.469-0.39-4.88-0.952-7.218-1.682v28.35h-16.041v-36.753
		c-12.032-9.342-19.784-23.935-19.784-40.348c0-28.202,22.862-51.064,51.064-51.064c28.202,0,51.064,22.862,51.064,51.064
		C202.015,192.924,194.263,207.517,182.231,216.859z"/>
	<circle cx="128.041" cy="171.895" r="12.098"/>
	<circle cx="173.861" cy="171.895" r="12.098"/>
	<polygon points="136.772,204.701 165.13,204.701 150.951,183.311 	"/>
</g>
</svg>