<svg width="40" height="40" viewBox="0 0 38 40" fill="none" xmlns="http://www.w3.org/2000/svg">
<path d="M28.6463 0.0377595C26.4747 0.321661 24.48 1.44236 23.0474 3.1835C21.6147 4.92464 20.8456 7.16276 20.8886 9.46576V13.9998H3.8C2.79218 13.9998 1.82563 14.4212 1.11299 15.1713C0.400356 15.9215 0 16.9389 0 17.9998L0 35.9998C0 37.0606 0.400356 38.078 1.11299 38.8282C1.82563 39.5783 2.79218 39.9998 3.8 39.9998H26.6C27.6078 39.9998 28.5744 39.5783 29.287 38.8282C29.9996 38.078 30.4 37.0606 30.4 35.9998V17.9998C30.4 16.9389 29.9996 15.9215 29.287 15.1713C28.5744 14.4212 27.6078 13.9998 26.6 13.9998H24.6886V9.35976C24.6559 8.06631 25.0784 6.80575 25.8748 5.82014C26.6712 4.83454 27.7854 4.19337 29.0035 4.01976C29.6613 3.95607 30.3244 4.03749 30.9506 4.25882C31.5768 4.48015 32.1522 4.83652 32.6402 5.30517C33.1281 5.77382 33.5179 6.34445 33.7845 6.9806C34.0511 7.61676 34.1887 8.30445 34.1886 8.99976V15.9998C34.1886 16.5302 34.3888 17.0389 34.7451 17.414C35.1014 17.789 35.5847 17.9998 36.0886 17.9998C36.5925 17.9998 37.0758 17.789 37.4321 17.414C37.7884 17.0389 37.9886 16.5302 37.9886 15.9998V8.99976C37.9872 7.74794 37.7381 6.51016 37.257 5.36533C36.776 4.2205 36.0736 3.19376 35.1946 2.35056C34.3156 1.50736 33.2794 0.866222 32.1519 0.468015C31.0245 0.0698081 29.8305 -0.0767249 28.6463 0.0377595ZM17.1 30.3338C17.1 30.8642 16.8998 31.3729 16.5435 31.748C16.1872 32.123 15.7039 32.3338 15.2 32.3338C14.6961 32.3338 14.2128 32.123 13.8565 31.748C13.5002 31.3729 13.3 30.8642 13.3 30.3338V24.3338C13.3 23.8033 13.5002 23.2946 13.8565 22.9195C14.2128 22.5445 14.6961 22.3338 15.2 22.3338C15.7039 22.3338 16.1872 22.5445 16.5435 22.9195C16.8998 23.2946 17.1 23.8033 17.1 24.3338V30.3338Z" fill="black"/>
</svg>
