<?xml version="1.0" encoding="iso-8859-1"?>
<!-- Uploaded to: SVG Repo, www.svgrepo.com, Generator: SVG Repo Mixer Tools -->
<svg fill="#000000" height="40px" width="40px" version="1.1" id="Layer_1" xmlns="http://www.w3.org/2000/svg" xmlns:xlink="http://www.w3.org/1999/xlink" 
	 viewBox="0 0 491.6 491.6" xml:space="preserve">
<g>
	<g>
		<path d="M153.6,0H92.2C80.9,0,71.7,9.2,71.7,20.5V41H30.8c-11.3,0-20.5,9.2-20.5,20.5v61.4c0,11.3,9.2,20.5,20.5,20.5h41v204.8
			h-41c-11.3,0-20.5,9.2-20.5,20.5v61.4c0,11.3,9.2,20.5,20.5,20.5h41v20.5c0,11.3,9.2,20.5,20.5,20.5h61.4
			c11.3,0,20.5-9.2,20.5-20.5V20.5C174.1,9.1,165,0,153.6,0z M71.7,102.4H51.2V81.9h20.5V102.4z M71.7,409.6H51.2v-20.5h20.5V409.6z
			"/>
	</g>
</g>
<g>
	<g>
		<path d="M276.5,0h-61.4c-11.3,0-20.5,9.2-20.5,20.5v450.6c0,11.3,9.2,20.5,20.5,20.5h61.4c11.3,0,20.5-9.2,20.5-20.5V20.5
			C297,9.1,287.8,0,276.5,0z"/>
	</g>
</g>
<g>
	<g>
		<path d="M460.8,143.3c11.3,0,20.5-9.2,20.5-20.5V61.4c0-11.3-9.2-20.5-20.5-20.5h-41V20.5c0-11.3-9.2-20.5-20.5-20.5h-61.4
			c-11.3,0-20.5,9.2-20.5,20.5v450.6c0,11.3,9.2,20.5,20.5,20.5h61.4c11.3,0,20.5-9.2,20.5-20.5v-20.5h41c11.3,0,20.5-9.2,20.5-20.5
			v-61.4c0-11.3-9.2-20.5-20.5-20.5h-41V143.3H460.8z M419.9,81.9h20.5v20.5h-20.5V81.9z M419.9,389.1h20.5v20.5h-20.5V389.1z"/>
	</g>
</g>
</svg>